<svg width="20" height="12" viewBox="0 0 20 12" fill="none" xmlns="http://www.w3.org/2000/svg">
<path d="M10 0.400002C3.439 0.400002 0 5.232 0 6C0 6.766 3.439 11.6 10 11.6C16.56 11.6 20 6.766 20 6C20 5.232 16.56 0.400002 10 0.400002ZM10 10.307C7.545 10.307 5.555 8.379 5.555 6C5.555 3.621 7.545 1.691 10 1.691C12.455 1.691 14.444 3.621 14.444 6C14.444 8.379 12.455 10.307 10 10.307ZM10 6C9.593 5.553 10.663 3.846 10 3.846C8.772 3.846 7.777 4.811 7.777 6C7.777 7.189 8.772 8.154 10 8.154C11.227 8.154 12.223 7.189 12.223 6C12.223 5.453 10.346 6.379 10 6Z" fill="#C2C3CA"/>
</svg>
